# MagicaVoxel @ Ephtracy

# group
o 

# material
mtllib Island.mtl
usemtl palette

# normals
vn -1 0 0
vn 1 0 0
vn 0 0 1
vn 0 0 -1
vn 0 -1 0
vn 0 1 0

# texcoords
vt 0.369141 0.5
vt 0.373047 0.5
vt 0.892578 0.5

# verts
v -1 0 0.8
v -1 0 -0.5
v -1 0.1 0.8
v -1 0.1 -0.5
v -0.9 0 0.9
v -0.9 0 0.8
v -0.9 0 -0.5
v -0.9 0 -0.6
v -0.9 0.1 0.9
v -0.9 0.1 0.8
v -0.9 0.1 -0.5
v -0.9 0.1 -0.6
v -0.8 0 1
v -0.8 0 0.9
v -0.8 0 -0.6
v -0.8 0 -0.7
v -0.8 0.1 1
v -0.8 0.1 0.9
v -0.8 0.1 -0.6
v -0.8 0.1 -0.7
v -0.7 0 1.1
v -0.7 0 1
v -0.7 0 -0.7
v -0.7 0 -0.8
v -0.7 0.1 1.1
v -0.7 0.1 1
v -0.7 0.1 -0.7
v -0.7 0.1 -0.8
v -0.6 0 1.2
v -0.6 0 1.1
v -0.6 0 -0.8
v -0.6 0 -0.9
v -0.6 0.1 1.2
v -0.6 0.1 1.1
v -0.6 0.1 0.8
v -0.6 0.1 -0.2
v -0.6 0.1 -0.8
v -0.6 0.1 -0.9
v -0.6 0.3 0.8
v -0.6 0.3 0.4
v -0.6 0.3 0
v -0.6 0.3 -0.2
v -0.6 0.4 0.8
v -0.6 0.4 0.4
v -0.6 0.4 0
v -0.6 0.4 -0.2
v -0.6 0.5 0.4
v -0.6 0.5 0
v -0.5 0 1.3
v -0.5 0 1.2
v -0.5 0 -0.9
v -0.5 0 -1
v -0.5 0.1 1.3
v -0.5 0.1 1.2
v -0.5 0.1 1
v -0.5 0.1 0.8
v -0.5 0.1 -0.2
v -0.5 0.1 -0.4
v -0.5 0.1 -0.9
v -0.5 0.1 -1
v -0.5 0.3 1
v -0.5 0.3 0.9
v -0.5 0.3 0.8
v -0.5 0.3 -0.2
v -0.5 0.3 -0.4
v -0.5 0.4 1
v -0.5 0.4 0.9
v -0.5 0.4 0.8
v -0.5 0.4 0.4
v -0.5 0.4 0
v -0.5 0.4 -0.2
v -0.5 0.4 -0.4
v -0.5 0.5 0.9
v -0.5 0.5 0.4
v -0.5 0.5 0
v -0.5 0.5 -0.2
v -0.4 0.1 -0.4
v -0.4 0.1 -0.7
v -0.4 0.3 -0.4
v -0.4 0.3 -0.7
v -0.4 0.4 -0.4
v -0.4 0.4 -0.7
v -0.3 0.4 1
v -0.3 0.4 0.9
v -0.3 0.4 -0.2
v -0.3 0.4 -0.6
v -0.3 0.5 1
v -0.3 0.5 0.9
v -0.3 0.5 -0.2
v -0.3 0.5 -0.6
v 0.3 0.1 -0.2
v 0.3 0.1 -0.6
v 0.3 0.2 -0.5
v 0.3 0.2 -0.6
v 0.3 0.3 -0.2
v 0.3 0.3 -0.5
v 0.3 0.3 -0.6
v 0.3 0.4 -0.2
v 0.3 0.4 -0.5
v 0.8 0.1 0.6
v 0.8 0.1 -0.1
v 0.8 0.2 0.6
v 0.8 0.2 -0.1
v 0.8 0.3 0.6
v 0.8 0.3 -0.1
v -0.2 0.4 1
v -0.2 0.4 0.9
v -0.2 0.5 1
v -0.2 0.5 0.9
v -0.1 0.1 -0.4
v -0.1 0.1 -0.7
v -0.1 0.3 -0.6
v -0.1 0.3 -0.7
v -0.1 0.4 -0.4
v -0.1 0.4 -0.6
v -0.1 0.4 -0.7
v -0.1 0.5 -0.4
v -0.1 0.5 -0.6
v 0 0.1 1
v 0 0.1 0.8
v 0 0.3 1
v 0 0.3 0.9
v 0 0.3 0.8
v 0 0.4 1
v 0 0.4 0.9
v 0 0.4 0.8
v 0 0.4 0.7
v 0 0.5 0.9
v 0 0.5 0.7
v 0.1 0.4 -0.3
v 0.1 0.4 -0.4
v 0.1 0.5 -0.3
v 0.1 0.5 -0.4
v 0.2 0.1 0
v 0.2 0.1 -0.4
v 0.2 0.3 0
v 0.2 0.3 -0.3
v 0.2 0.3 -0.4
v 0.2 0.4 0.2
v 0.2 0.4 0
v 0.2 0.4 -0.3
v 0.2 0.4 -0.4
v 0.2 0.5 0.2
v 0.2 0.5 -0.3
v 0.4 0.1 0.3
v 0.4 0.1 0
v 0.4 0.3 0.2
v 0.4 0.3 0
v 0.4 0.4 0.3
v 0.4 0.4 0.2
v 0.4 0.4 0
v 0.4 0.5 0.3
v 0.4 0.5 0.2
v 0.6 0.4 0.4
v 0.6 0.4 0.3
v 0.6 0.5 0.4
v 0.6 0.5 0.3
v 0.7 0 1.3
v 0.7 0 1.2
v 0.7 0 -0.9
v 0.7 0 -1
v 0.7 0.1 1.3
v 0.7 0.1 1.2
v 0.7 0.1 0.8
v 0.7 0.1 0.3
v 0.7 0.1 -0.5
v 0.7 0.1 -0.6
v 0.7 0.1 -0.9
v 0.7 0.1 -1
v 0.7 0.2 -0.5
v 0.7 0.2 -0.6
v 0.7 0.3 0.8
v 0.7 0.3 0.7
v 0.7 0.3 0.4
v 0.7 0.3 0.3
v 0.7 0.3 -0.2
v 0.7 0.3 -0.5
v 0.7 0.3 -0.6
v 0.7 0.4 0.8
v 0.7 0.4 0.7
v 0.7 0.4 0.4
v 0.7 0.4 0.3
v 0.7 0.4 -0.2
v 0.7 0.4 -0.5
v 0.7 0.5 0.7
v 0.7 0.5 0.4
v 0.8 0 1.2
v 0.8 0 1.1
v 0.8 0 -0.8
v 0.8 0 -0.9
v 0.8 0.1 1.2
v 0.8 0.1 1.1
v 0.8 0.1 -0.8
v 0.8 0.1 -0.9
v 0.9 0 1.1
v 0.9 0 1
v 0.9 0 -0.7
v 0.9 0 -0.8
v 0.9 0.1 1.1
v 0.9 0.1 1
v 0.9 0.1 -0.2
v 0.9 0.1 -0.5
v 0.9 0.1 -0.7
v 0.9 0.1 -0.8
v 0.9 0.2 -0.2
v 0.9 0.2 -0.5
v 0.9 0.3 -0.2
v 0.9 0.3 -0.5
v 1 0 1
v 1 0 0.9
v 1 0 -0.6
v 1 0 -0.7
v 1 0.1 1
v 1 0.1 0.9
v 1 0.1 0.6
v 1 0.1 -0.1
v 1 0.1 -0.6
v 1 0.1 -0.7
v 1 0.2 0.6
v 1 0.2 -0.1
v 1 0.3 0.6
v 1 0.3 -0.1
v 1.1 0 0.9
v 1.1 0 0.8
v 1.1 0 -0.5
v 1.1 0 -0.6
v 1.1 0.1 0.9
v 1.1 0.1 0.8
v 1.1 0.1 -0.5
v 1.1 0.1 -0.6
v 1.2 0 0.8
v 1.2 0 -0.5
v 1.2 0.1 0.8
v 1.2 0.1 -0.5
v -0.5 0 1.3
v -0.5 0.1 1.3
v 0.7 0 1.3
v 0.7 0.1 1.3
v -0.6 0 1.2
v -0.6 0.1 1.2
v -0.5 0 1.2
v -0.5 0.1 1.2
v 0.7 0 1.2
v 0.7 0.1 1.2
v 0.8 0 1.2
v 0.8 0.1 1.2
v -0.7 0 1.1
v -0.7 0.1 1.1
v -0.6 0 1.1
v -0.6 0.1 1.1
v 0.8 0 1.1
v 0.8 0.1 1.1
v 0.9 0 1.1
v 0.9 0.1 1.1
v -0.8 0 1
v -0.8 0.1 1
v -0.7 0 1
v -0.7 0.1 1
v -0.5 0.1 1
v -0.5 0.3 1
v -0.5 0.4 1
v -0.3 0.3 1
v -0.3 0.4 1
v -0.3 0.5 1
v -0.2 0.3 1
v -0.2 0.4 1
v -0.2 0.5 1
v 0 0.1 1
v 0 0.3 1
v 0 0.4 1
v 0.9 0 1
v 0.9 0.1 1
v 1 0 1
v 1 0.1 1
v -0.9 0 0.9
v -0.9 0.1 0.9
v -0.8 0 0.9
v -0.8 0.1 0.9
v -0.5 0.4 0.9
v -0.5 0.5 0.9
v -0.3 0.4 0.9
v -0.3 0.5 0.9
v -0.2 0.4 0.9
v -0.2 0.5 0.9
v 0 0.4 0.9
v 0 0.5 0.9
v 1 0 0.9
v 1 0.1 0.9
v 1.1 0 0.9
v 1.1 0.1 0.9
v -1 0 0.8
v -1 0.1 0.8
v -0.9 0 0.8
v -0.9 0.1 0.8
v -0.6 0.1 0.8
v -0.6 0.3 0.8
v -0.6 0.4 0.8
v -0.5 0.1 0.8
v -0.5 0.3 0.8
v -0.5 0.4 0.8
v 0 0.1 0.8
v 0 0.3 0.8
v 0 0.4 0.8
v 0.4 0.3 0.8
v 0.4 0.4 0.8
v 0.6 0.3 0.8
v 0.6 0.4 0.8
v 0.7 0.1 0.8
v 0.7 0.3 0.8
v 0.7 0.4 0.8
v 1.1 0 0.8
v 1.1 0.1 0.8
v 1.2 0 0.8
v 1.2 0.1 0.8
v 0 0.4 0.7
v 0 0.5 0.7
v 0.4 0.4 0.7
v 0.6 0.4 0.7
v 0.7 0.4 0.7
v 0.7 0.5 0.7
v 0.8 0.1 0.6
v 0.8 0.2 0.6
v 0.8 0.3 0.6
v 1 0.1 0.6
v 1 0.2 0.6
v 1 0.3 0.6
v -0.6 0.4 0.4
v -0.6 0.5 0.4
v -0.5 0.4 0.4
v -0.5 0.5 0.4
v 0.3 0.1 -0.2
v 0.3 0.3 -0.2
v 0.3 0.4 -0.2
v 0.7 0.2 -0.2
v 0.7 0.3 -0.2
v 0.7 0.4 -0.2
v 0.9 0.1 -0.2
v 0.9 0.2 -0.2
v 0.9 0.3 -0.2
v 0.6 0.4 0.4
v 0.6 0.5 0.4
v 0.7 0.4 0.4
v 0.7 0.5 0.4
v 0.4 0.1 0.3
v 0.4 0.4 0.3
v 0.4 0.5 0.3
v 0.6 0.3 0.3
v 0.6 0.4 0.3
v 0.6 0.5 0.3
v 0.7 0.1 0.3
v 0.7 0.3 0.3
v 0.7 0.4 0.3
v 0.2 0.4 0.2
v 0.2 0.5 0.2
v 0.4 0.4 0.2
v 0.4 0.5 0.2
v -0.6 0.4 0
v -0.6 0.5 0
v -0.5 0.4 0
v -0.5 0.5 0
v 0.2 0.1 0
v 0.2 0.3 0
v 0.2 0.4 0
v 0.4 0.1 0
v 0.4 0.3 0
v 0.4 0.4 0
v 0.8 0.1 -0.1
v 0.8 0.2 -0.1
v 0.8 0.3 -0.1
v 1 0.1 -0.1
v 1 0.2 -0.1
v 1 0.3 -0.1
v -0.6 0.1 -0.2
v -0.6 0.3 -0.2
v -0.6 0.4 -0.2
v -0.5 0.1 -0.2
v -0.5 0.3 -0.2
v -0.5 0.4 -0.2
v -0.5 0.5 -0.2
v -0.3 0.4 -0.2
v -0.3 0.5 -0.2
v 0.1 0.4 -0.3
v 0.1 0.5 -0.3
v 0.2 0.4 -0.3
v 0.2 0.5 -0.3
v -0.5 0.1 -0.4
v -0.5 0.3 -0.4
v -0.5 0.4 -0.4
v -0.4 0.1 -0.4
v -0.4 0.3 -0.4
v -0.4 0.4 -0.4
v -0.1 0.1 -0.4
v -0.1 0.4 -0.4
v -0.1 0.5 -0.4
v 0.1 0.3 -0.4
v 0.1 0.4 -0.4
v 0.1 0.5 -0.4
v 0.2 0.1 -0.4
v 0.2 0.3 -0.4
v 0.2 0.4 -0.4
v -1 0 -0.5
v -1 0.1 -0.5
v -0.9 0 -0.5
v -0.9 0.1 -0.5
v 0.3 0.3 -0.5
v 0.3 0.4 -0.5
v 0.7 0.1 -0.5
v 0.7 0.2 -0.5
v 0.7 0.3 -0.5
v 0.7 0.4 -0.5
v 0.9 0.1 -0.5
v 0.9 0.2 -0.5
v 0.9 0.3 -0.5
v 1.1 0 -0.5
v 1.1 0.1 -0.5
v 1.2 0 -0.5
v 1.2 0.1 -0.5
v -0.9 0 -0.6
v -0.9 0.1 -0.6
v -0.8 0 -0.6
v -0.8 0.1 -0.6
v -0.3 0.4 -0.6
v -0.3 0.5 -0.6
v -0.1 0.4 -0.6
v -0.1 0.5 -0.6
v 0.3 0.1 -0.6
v 0.3 0.2 -0.6
v 0.3 0.3 -0.6
v 0.7 0.1 -0.6
v 0.7 0.2 -0.6
v 0.7 0.3 -0.6
v 1 0 -0.6
v 1 0.1 -0.6
v 1.1 0 -0.6
v 1.1 0.1 -0.6
v -0.8 0 -0.7
v -0.8 0.1 -0.7
v -0.7 0 -0.7
v -0.7 0.1 -0.7
v -0.4 0.1 -0.7
v -0.4 0.3 -0.7
v -0.4 0.4 -0.7
v -0.1 0.1 -0.7
v -0.1 0.3 -0.7
v -0.1 0.4 -0.7
v 0.9 0 -0.7
v 0.9 0.1 -0.7
v 1 0 -0.7
v 1 0.1 -0.7
v -0.7 0 -0.8
v -0.7 0.1 -0.8
v -0.6 0 -0.8
v -0.6 0.1 -0.8
v 0.8 0 -0.8
v 0.8 0.1 -0.8
v 0.9 0 -0.8
v 0.9 0.1 -0.8
v -0.6 0 -0.9
v -0.6 0.1 -0.9
v -0.5 0 -0.9
v -0.5 0.1 -0.9
v 0.7 0 -0.9
v 0.7 0.1 -0.9
v 0.8 0 -0.9
v 0.8 0.1 -0.9
v -0.5 0 -1
v -0.5 0.1 -1
v 0.7 0 -1
v 0.7 0.1 -1
v -0.5 0 1.3
v 0.7 0 1.3
v -0.6 0 1.2
v -0.5 0 1.2
v 0.7 0 1.2
v 0.8 0 1.2
v -0.7 0 1.1
v -0.6 0 1.1
v 0.8 0 1.1
v 0.9 0 1.1
v -0.8 0 1
v -0.7 0 1
v 0.9 0 1
v 1 0 1
v -0.9 0 0.9
v -0.8 0 0.9
v 1 0 0.9
v 1.1 0 0.9
v -1 0 0.8
v -0.9 0 0.8
v 1.1 0 0.8
v 1.2 0 0.8
v -1 0 -0.5
v -0.9 0 -0.5
v 1.1 0 -0.5
v 1.2 0 -0.5
v -0.9 0 -0.6
v -0.8 0 -0.6
v 1 0 -0.6
v 1.1 0 -0.6
v -0.8 0 -0.7
v -0.7 0 -0.7
v 0.9 0 -0.7
v 1 0 -0.7
v -0.7 0 -0.8
v -0.6 0 -0.8
v 0.8 0 -0.8
v 0.9 0 -0.8
v -0.6 0 -0.9
v -0.5 0 -0.9
v 0.7 0 -0.9
v 0.8 0 -0.9
v -0.5 0 -1
v 0.7 0 -1
v -0.5 0.1 1.3
v 0.7 0.1 1.3
v -0.6 0.1 1.2
v -0.5 0.1 1.2
v 0.7 0.1 1.2
v 0.8 0.1 1.2
v -0.7 0.1 1.1
v -0.6 0.1 1.1
v 0.8 0.1 1.1
v 0.9 0.1 1.1
v -0.8 0.1 1
v -0.7 0.1 1
v -0.5 0.1 1
v 0 0.1 1
v 0.9 0.1 1
v 1 0.1 1
v -0.9 0.1 0.9
v -0.8 0.1 0.9
v 1 0.1 0.9
v 1.1 0.1 0.9
v -1 0.1 0.8
v -0.9 0.1 0.8
v -0.6 0.1 0.8
v -0.5 0.1 0.8
v 0 0.1 0.8
v 0.7 0.1 0.8
v 1.1 0.1 0.8
v 1.2 0.1 0.8
v 0.8 0.1 0.6
v 1 0.1 0.6
v 0.4 0.1 0.3
v 0.7 0.1 0.3
v 0.2 0.1 0
v 0.4 0.1 0
v 0.8 0.1 -0.1
v 1 0.1 -0.1
v -0.6 0.1 -0.2
v -0.5 0.1 -0.2
v 0.3 0.1 -0.2
v 0.9 0.1 -0.2
v -0.5 0.1 -0.4
v -0.4 0.1 -0.4
v -0.1 0.1 -0.4
v 0.2 0.1 -0.4
v -1 0.1 -0.5
v -0.9 0.1 -0.5
v 0.7 0.1 -0.5
v 0.9 0.1 -0.5
v 1.1 0.1 -0.5
v 1.2 0.1 -0.5
v -0.9 0.1 -0.6
v -0.8 0.1 -0.6
v 0.3 0.1 -0.6
v 0.7 0.1 -0.6
v 1 0.1 -0.6
v 1.1 0.1 -0.6
v -0.8 0.1 -0.7
v -0.7 0.1 -0.7
v -0.4 0.1 -0.7
v -0.1 0.1 -0.7
v 0.9 0.1 -0.7
v 1 0.1 -0.7
v -0.7 0.1 -0.8
v -0.6 0.1 -0.8
v 0.8 0.1 -0.8
v 0.9 0.1 -0.8
v -0.6 0.1 -0.9
v -0.5 0.1 -0.9
v 0.7 0.1 -0.9
v 0.8 0.1 -0.9
v -0.5 0.1 -1
v 0.7 0.1 -1
v 0.8 0.3 0.6
v 1 0.3 0.6
v 0.8 0.3 -0.1
v 1 0.3 -0.1
v 0.7 0.3 -0.2
v 0.9 0.3 -0.2
v 0.3 0.3 -0.5
v 0.7 0.3 -0.5
v 0.9 0.3 -0.5
v 0.3 0.3 -0.6
v 0.7 0.3 -0.6
v -0.5 0.4 1
v -0.3 0.4 1
v -0.2 0.4 1
v 0 0.4 1
v -0.5 0.4 0.9
v -0.3 0.4 0.9
v -0.2 0.4 0.9
v 0 0.4 0.9
v -0.6 0.4 0.8
v -0.5 0.4 0.8
v 0 0.4 0.8
v 0.4 0.4 0.8
v 0.6 0.4 0.8
v 0.7 0.4 0.8
v 0 0.4 0.7
v 0.4 0.4 0.7
v 0.6 0.4 0.7
v 0.7 0.4 0.7
v -0.6 0.4 0.4
v -0.5 0.4 0.4
v 0.6 0.4 0.4
v 0.7 0.4 0.4
v 0.6 0.4 0.3
v 0.7 0.4 0.3
v 0.2 0.4 0.2
v 0.4 0.4 0.2
v -0.6 0.4 0
v -0.5 0.4 0
v 0.2 0.4 0
v 0.4 0.4 0
v -0.6 0.4 -0.2
v -0.5 0.4 -0.2
v -0.3 0.4 -0.2
v 0.3 0.4 -0.2
v 0.7 0.4 -0.2
v 0.1 0.4 -0.3
v 0.2 0.4 -0.3
v -0.5 0.4 -0.4
v -0.4 0.4 -0.4
v 0.1 0.4 -0.4
v 0.2 0.4 -0.4
v 0.3 0.4 -0.5
v 0.7 0.4 -0.5
v -0.3 0.4 -0.6
v -0.1 0.4 -0.6
v -0.4 0.4 -0.7
v -0.1 0.4 -0.7
v -0.3 0.5 1
v -0.2 0.5 1
v -0.5 0.5 0.9
v -0.3 0.5 0.9
v -0.2 0.5 0.9
v 0 0.5 0.9
v 0 0.5 0.7
v 0.7 0.5 0.7
v -0.6 0.5 0.4
v -0.5 0.5 0.4
v 0.6 0.5 0.4
v 0.7 0.5 0.4
v 0.4 0.5 0.3
v 0.6 0.5 0.3
v 0.2 0.5 0.2
v 0.4 0.5 0.2
v -0.6 0.5 0
v -0.5 0.5 0
v -0.5 0.5 -0.2
v -0.3 0.5 -0.2
v 0.1 0.5 -0.3
v 0.2 0.5 -0.3
v -0.1 0.5 -0.4
v 0.1 0.5 -0.4
v -0.3 0.5 -0.6
v -0.1 0.5 -0.6

# faces
f 3/2/1 2/2/1 1/2/1
f 4/2/1 2/2/1 3/2/1
f 9/2/1 6/2/1 5/2/1
f 10/2/1 6/2/1 9/2/1
f 11/2/1 8/2/1 7/2/1
f 12/2/1 8/2/1 11/2/1
f 17/2/1 14/2/1 13/2/1
f 18/2/1 14/2/1 17/2/1
f 19/2/1 16/2/1 15/2/1
f 20/2/1 16/2/1 19/2/1
f 25/2/1 22/2/1 21/2/1
f 26/2/1 22/2/1 25/2/1
f 27/2/1 24/2/1 23/2/1
f 28/2/1 24/2/1 27/2/1
f 33/2/1 30/2/1 29/2/1
f 34/2/1 30/2/1 33/2/1
f 37/2/1 32/2/1 31/2/1
f 38/2/1 32/2/1 37/2/1
f 39/2/1 36/2/1 35/2/1
f 40/2/1 36/2/1 39/2/1
f 41/2/1 36/2/1 40/2/1
f 42/2/1 36/2/1 41/2/1
f 43/3/1 40/3/1 39/3/1
f 44/2/1 41/2/1 40/2/1
f 44/3/1 40/3/1 43/3/1
f 45/3/1 42/3/1 41/3/1
f 45/2/1 41/2/1 44/2/1
f 46/3/1 42/3/1 45/3/1
f 47/3/1 45/3/1 44/3/1
f 48/3/1 45/3/1 47/3/1
f 53/2/1 50/2/1 49/2/1
f 54/2/1 50/2/1 53/2/1
f 59/2/1 52/2/1 51/2/1
f 60/2/1 52/2/1 59/2/1
f 61/2/1 56/2/1 55/2/1
f 62/2/1 56/2/1 61/2/1
f 63/2/1 56/2/1 62/2/1
f 64/2/1 58/2/1 57/2/1
f 65/2/1 58/2/1 64/2/1
f 66/3/1 62/3/1 61/3/1
f 67/2/1 63/2/1 62/2/1
f 67/3/1 62/3/1 66/3/1
f 68/2/1 63/2/1 67/2/1
f 71/3/1 65/3/1 64/3/1
f 72/3/1 65/3/1 71/3/1
f 73/3/1 69/3/1 68/3/1
f 73/3/1 68/3/1 67/3/1
f 74/3/1 69/3/1 73/3/1
f 75/3/1 71/3/1 70/3/1
f 76/3/1 71/3/1 75/3/1
f 79/2/1 78/2/1 77/2/1
f 80/2/1 78/2/1 79/2/1
f 81/3/1 80/3/1 79/3/1
f 82/3/1 80/3/1 81/3/1
f 87/3/1 84/3/1 83/3/1
f 88/3/1 84/3/1 87/3/1
f 89/3/1 86/3/1 85/3/1
f 90/3/1 86/3/1 89/3/1
f 93/2/1 92/2/1 91/2/1
f 94/2/1 92/2/1 93/2/1
f 95/2/1 93/2/1 91/2/1
f 96/3/1 94/3/1 93/3/1
f 96/2/1 93/2/1 95/2/1
f 97/3/1 94/3/1 96/3/1
f 98/3/1 96/3/1 95/3/1
f 99/3/1 96/3/1 98/3/1
f 102/2/1 101/2/1 100/2/1
f 103/2/1 101/2/1 102/2/1
f 104/3/1 103/3/1 102/3/1
f 105/3/1 103/3/1 104/3/1
f 106/3/2 107/3/2 108/3/2
f 108/3/2 107/3/2 109/3/2
f 110/2/2 111/2/2 112/2/2
f 112/2/2 111/2/2 113/2/2
f 110/2/2 112/2/2 114/2/2
f 112/3/2 113/3/2 115/3/2
f 114/2/2 112/2/2 115/2/2
f 115/3/2 113/3/2 116/3/2
f 114/3/2 115/3/2 117/3/2
f 117/3/2 115/3/2 118/3/2
f 119/2/2 120/2/2 121/2/2
f 121/2/2 120/2/2 122/2/2
f 122/2/2 120/2/2 123/2/2
f 121/3/2 122/3/2 124/3/2
f 122/2/2 123/2/2 125/2/2
f 124/3/2 122/3/2 125/3/2
f 125/2/2 123/2/2 126/2/2
f 125/3/2 126/3/2 128/3/2
f 126/3/2 127/3/2 128/3/2
f 128/3/2 127/3/2 129/3/2
f 130/3/2 131/3/2 132/3/2
f 132/3/2 131/3/2 133/3/2
f 134/2/2 135/2/2 136/2/2
f 136/2/2 135/2/2 137/2/2
f 137/2/2 135/2/2 138/2/2
f 136/2/2 137/2/2 140/2/2
f 137/3/2 138/3/2 141/3/2
f 140/2/2 137/2/2 141/2/2
f 141/3/2 138/3/2 142/3/2
f 139/3/2 140/3/2 143/3/2
f 140/3/2 141/3/2 143/3/2
f 143/3/2 141/3/2 144/3/2
f 145/2/2 146/2/2 147/2/2
f 147/2/2 146/2/2 148/2/2
f 145/2/2 147/2/2 149/2/2
f 147/3/2 148/3/2 150/3/2
f 149/2/2 147/2/2 150/2/2
f 150/3/2 148/3/2 151/3/2
f 149/3/2 150/3/2 152/3/2
f 152/3/2 150/3/2 153/3/2
f 154/3/2 155/3/2 156/3/2
f 156/3/2 155/3/2 157/3/2
f 158/2/2 159/2/2 162/2/2
f 162/2/2 159/2/2 163/2/2
f 160/2/2 161/2/2 168/2/2
f 168/2/2 161/2/2 169/2/2
f 166/2/2 167/2/2 170/2/2
f 170/2/2 167/2/2 171/2/2
f 164/2/2 165/2/2 172/2/2
f 172/2/2 165/2/2 173/2/2
f 173/2/2 165/2/2 174/2/2
f 174/2/2 165/2/2 175/2/2
f 170/3/2 171/3/2 177/3/2
f 177/3/2 171/3/2 178/3/2
f 172/3/2 173/3/2 179/3/2
f 173/2/2 174/2/2 180/2/2
f 179/3/2 173/3/2 180/3/2
f 174/3/2 175/3/2 181/3/2
f 180/2/2 174/2/2 181/2/2
f 181/3/2 175/3/2 182/3/2
f 176/3/2 177/3/2 183/3/2
f 183/3/2 177/3/2 184/3/2
f 180/3/2 181/3/2 185/3/2
f 185/3/2 181/3/2 186/3/2
f 187/2/2 188/2/2 191/2/2
f 191/2/2 188/2/2 192/2/2
f 189/2/2 190/2/2 193/2/2
f 193/2/2 190/2/2 194/2/2
f 195/2/2 196/2/2 199/2/2
f 199/2/2 196/2/2 200/2/2
f 197/2/2 198/2/2 203/2/2
f 203/2/2 198/2/2 204/2/2
f 201/2/2 202/2/2 205/2/2
f 205/2/2 202/2/2 206/2/2
f 205/3/2 206/3/2 207/3/2
f 207/3/2 206/3/2 208/3/2
f 209/2/2 210/2/2 213/2/2
f 213/2/2 210/2/2 214/2/2
f 211/2/2 212/2/2 217/2/2
f 217/2/2 212/2/2 218/2/2
f 215/2/2 216/2/2 219/2/2
f 219/2/2 216/2/2 220/2/2
f 219/3/2 220/3/2 221/3/2
f 221/3/2 220/3/2 222/3/2
f 223/2/2 224/2/2 227/2/2
f 227/2/2 224/2/2 228/2/2
f 225/2/2 226/2/2 229/2/2
f 229/2/2 226/2/2 230/2/2
f 231/2/2 232/2/2 233/2/2
f 233/2/2 232/2/2 234/2/2
f 237/2/3 236/2/3 235/2/3
f 238/2/3 236/2/3 237/2/3
f 241/2/3 240/2/3 239/2/3
f 242/2/3 240/2/3 241/2/3
f 245/2/3 244/2/3 243/2/3
f 246/2/3 244/2/3 245/2/3
f 249/2/3 248/2/3 247/2/3
f 250/2/3 248/2/3 249/2/3
f 253/2/3 252/2/3 251/2/3
f 254/2/3 252/2/3 253/2/3
f 257/2/3 256/2/3 255/2/3
f 258/2/3 256/2/3 257/2/3
f 262/2/3 260/2/3 259/2/3
f 262/3/3 261/3/3 260/3/3
f 263/3/3 261/3/3 262/3/3
f 265/2/3 262/2/3 259/2/3
f 265/2/3 263/2/3 262/2/3
f 266/3/3 264/3/3 263/3/3
f 266/2/3 263/2/3 265/2/3
f 267/3/3 264/3/3 266/3/3
f 268/2/3 265/2/3 259/2/3
f 269/3/3 266/3/3 265/3/3
f 269/2/3 265/2/3 268/2/3
f 270/3/3 266/3/3 269/3/3
f 273/2/3 272/2/3 271/2/3
f 274/2/3 272/2/3 273/2/3
f 277/2/3 276/2/3 275/2/3
f 278/2/3 276/2/3 277/2/3
f 281/3/3 280/3/3 279/3/3
f 282/3/3 280/3/3 281/3/3
f 285/3/3 284/3/3 283/3/3
f 286/3/3 284/3/3 285/3/3
f 289/2/3 288/2/3 287/2/3
f 290/2/3 288/2/3 289/2/3
f 293/2/3 292/2/3 291/2/3
f 294/2/3 292/2/3 293/2/3
f 298/2/3 296/2/3 295/2/3
f 299/3/3 297/3/3 296/3/3
f 299/2/3 296/2/3 298/2/3
f 300/3/3 297/3/3 299/3/3
f 304/2/3 302/2/3 301/2/3
f 304/3/3 303/3/3 302/3/3
f 305/3/3 303/3/3 304/3/3
f 306/2/3 304/2/3 301/2/3
f 306/2/3 305/2/3 304/2/3
f 307/2/3 305/2/3 306/2/3
f 308/2/3 306/2/3 301/2/3
f 309/3/3 307/3/3 306/3/3
f 309/2/3 306/2/3 308/2/3
f 310/3/3 307/3/3 309/3/3
f 313/2/3 312/2/3 311/2/3
f 314/2/3 312/2/3 313/2/3
f 317/3/3 316/3/3 315/3/3
f 318/3/3 316/3/3 317/3/3
f 319/3/3 316/3/3 318/3/3
f 320/3/3 316/3/3 319/3/3
f 324/2/3 322/2/3 321/2/3
f 325/3/3 323/3/3 322/3/3
f 325/2/3 322/2/3 324/2/3
f 326/3/3 323/3/3 325/3/3
f 329/3/3 328/3/3 327/3/3
f 330/3/3 328/3/3 329/3/3
f 334/2/3 332/2/3 331/2/3
f 335/3/3 333/3/3 332/3/3
f 335/2/3 332/2/3 334/2/3
f 336/3/3 333/3/3 335/3/3
f 337/2/3 334/2/3 331/2/3
f 338/3/3 335/3/3 334/3/3
f 338/2/3 334/2/3 337/2/3
f 339/3/3 335/3/3 338/3/3
f 340/3/4 341/3/4 342/3/4
f 342/3/4 341/3/4 343/3/4
f 344/2/4 345/2/4 347/2/4
f 345/3/4 346/3/4 348/3/4
f 347/2/4 345/2/4 348/2/4
f 348/3/4 346/3/4 349/3/4
f 344/2/4 347/2/4 350/2/4
f 347/3/4 348/3/4 351/3/4
f 350/2/4 347/2/4 351/2/4
f 351/3/4 348/3/4 352/3/4
f 353/3/4 354/3/4 355/3/4
f 355/3/4 354/3/4 356/3/4
f 357/3/4 358/3/4 359/3/4
f 359/3/4 358/3/4 360/3/4
f 361/2/4 362/2/4 364/2/4
f 362/3/4 363/3/4 365/3/4
f 364/2/4 362/2/4 365/2/4
f 365/3/4 363/3/4 366/3/4
f 367/2/4 368/2/4 370/2/4
f 368/3/4 369/3/4 371/3/4
f 370/2/4 368/2/4 371/2/4
f 371/3/4 369/3/4 372/3/4
f 373/2/4 374/2/4 376/2/4
f 374/3/4 375/3/4 377/3/4
f 376/2/4 374/2/4 377/2/4
f 377/3/4 375/3/4 378/3/4
f 378/3/4 379/3/4 380/3/4
f 380/3/4 379/3/4 381/3/4
f 382/3/4 383/3/4 384/3/4
f 384/3/4 383/3/4 385/3/4
f 386/2/4 387/2/4 389/2/4
f 387/3/4 388/3/4 390/3/4
f 389/2/4 387/2/4 390/2/4
f 390/3/4 388/3/4 391/3/4
f 392/2/4 393/2/4 395/2/4
f 393/3/4 394/3/4 396/3/4
f 395/2/4 393/2/4 396/2/4
f 396/3/4 394/3/4 397/3/4
f 392/2/4 395/2/4 398/2/4
f 395/3/4 396/3/4 399/3/4
f 398/2/4 395/2/4 399/2/4
f 399/3/4 396/3/4 400/3/4
f 401/2/4 402/2/4 403/2/4
f 403/2/4 402/2/4 404/2/4
f 405/3/4 406/3/4 409/3/4
f 409/3/4 406/3/4 410/3/4
f 407/2/4 408/2/4 411/2/4
f 408/3/4 409/3/4 412/3/4
f 411/2/4 408/2/4 412/2/4
f 412/3/4 409/3/4 413/3/4
f 414/2/4 415/2/4 416/2/4
f 416/2/4 415/2/4 417/2/4
f 418/2/4 419/2/4 420/2/4
f 420/2/4 419/2/4 421/2/4
f 422/3/4 423/3/4 424/3/4
f 424/3/4 423/3/4 425/3/4
f 426/2/4 427/2/4 429/2/4
f 427/3/4 428/3/4 430/3/4
f 429/2/4 427/2/4 430/2/4
f 430/3/4 428/3/4 431/3/4
f 432/2/4 433/2/4 434/2/4
f 434/2/4 433/2/4 435/2/4
f 436/2/4 437/2/4 438/2/4
f 438/2/4 437/2/4 439/2/4
f 440/2/4 441/2/4 443/2/4
f 441/3/4 442/3/4 444/3/4
f 443/2/4 441/2/4 444/2/4
f 444/3/4 442/3/4 445/3/4
f 446/2/4 447/2/4 448/2/4
f 448/2/4 447/2/4 449/2/4
f 450/2/4 451/2/4 452/2/4
f 452/2/4 451/2/4 453/2/4
f 454/2/4 455/2/4 456/2/4
f 456/2/4 455/2/4 457/2/4
f 458/2/4 459/2/4 460/2/4
f 460/2/4 459/2/4 461/2/4
f 462/2/4 463/2/4 464/2/4
f 464/2/4 463/2/4 465/2/4
f 466/2/4 467/2/4 468/2/4
f 468/2/4 467/2/4 469/2/4
f 473/2/5 471/2/5 470/2/5
f 474/2/5 471/2/5 473/2/5
f 477/2/5 473/2/5 472/2/5
f 477/2/5 475/2/5 474/2/5
f 477/2/5 474/2/5 473/2/5
f 478/2/5 475/2/5 477/2/5
f 481/2/5 477/2/5 476/2/5
f 481/2/5 479/2/5 478/2/5
f 481/2/5 478/2/5 477/2/5
f 482/2/5 479/2/5 481/2/5
f 485/2/5 481/2/5 480/2/5
f 485/2/5 483/2/5 482/2/5
f 485/2/5 482/2/5 481/2/5
f 486/2/5 483/2/5 485/2/5
f 489/2/5 485/2/5 484/2/5
f 489/2/5 487/2/5 486/2/5
f 489/2/5 486/2/5 485/2/5
f 490/2/5 487/2/5 489/2/5
f 492/2/5 489/2/5 488/2/5
f 492/2/5 491/2/5 490/2/5
f 492/2/5 490/2/5 489/2/5
f 493/2/5 491/2/5 492/2/5
f 494/2/5 491/2/5 493/2/5
f 495/2/5 491/2/5 494/2/5
f 496/2/5 494/2/5 493/2/5
f 497/2/5 494/2/5 496/2/5
f 498/2/5 494/2/5 497/2/5
f 499/2/5 494/2/5 498/2/5
f 500/2/5 498/2/5 497/2/5
f 501/2/5 498/2/5 500/2/5
f 502/2/5 498/2/5 501/2/5
f 503/2/5 498/2/5 502/2/5
f 504/2/5 502/2/5 501/2/5
f 505/2/5 502/2/5 504/2/5
f 506/2/5 502/2/5 505/2/5
f 507/2/5 502/2/5 506/2/5
f 508/2/5 506/2/5 505/2/5
f 509/2/5 506/2/5 508/2/5
f 510/2/5 506/2/5 509/2/5
f 511/2/5 506/2/5 510/2/5
f 512/2/5 510/2/5 509/2/5
f 513/2/5 510/2/5 512/2/5
f 514/2/6 515/2/6 517/2/6
f 517/2/6 515/2/6 518/2/6
f 516/2/6 517/2/6 521/2/6
f 518/2/6 519/2/6 521/2/6
f 517/2/6 518/2/6 521/2/6
f 521/2/6 519/2/6 522/2/6
f 520/2/6 521/2/6 525/2/6
f 522/2/6 523/2/6 525/2/6
f 521/2/6 522/2/6 525/2/6
f 525/2/6 523/2/6 526/2/6
f 526/2/6 523/2/6 527/2/6
f 527/2/6 523/2/6 528/2/6
f 524/2/6 525/2/6 531/2/6
f 525/2/6 526/2/6 531/2/6
f 527/2/6 528/2/6 532/2/6
f 528/2/6 529/2/6 532/2/6
f 530/2/6 531/2/6 535/2/6
f 531/2/6 526/2/6 536/2/6
f 535/2/6 531/2/6 536/2/6
f 536/2/6 526/2/6 537/2/6
f 532/2/6 533/2/6 538/2/6
f 527/2/6 532/2/6 538/2/6
f 538/2/6 533/2/6 539/2/6
f 539/2/6 533/2/6 540/2/6
f 540/2/6 541/2/6 542/2/6
f 539/2/6 540/2/6 542/2/6
f 542/2/6 541/2/6 543/2/6
f 539/2/6 542/2/6 545/2/6
f 544/2/6 545/2/6 547/2/6
f 545/2/6 542/2/6 548/2/6
f 546/2/6 547/2/6 548/2/6
f 547/2/6 545/2/6 548/2/6
f 543/2/6 541/2/6 549/2/6
f 534/2/6 535/2/6 550/2/6
f 535/2/6 536/2/6 550/2/6
f 548/2/6 549/2/6 552/2/6
f 546/2/6 548/2/6 552/2/6
f 552/2/6 549/2/6 553/2/6
f 550/2/6 551/2/6 554/2/6
f 546/2/6 552/2/6 557/2/6
f 534/2/6 550/2/6 558/2/6
f 554/2/6 555/2/6 558/2/6
f 550/2/6 554/2/6 558/2/6
f 558/2/6 555/2/6 559/2/6
f 553/2/6 549/2/6 561/2/6
f 549/2/6 541/2/6 562/2/6
f 561/2/6 549/2/6 562/2/6
f 562/2/6 541/2/6 563/2/6
f 559/2/6 555/2/6 564/2/6
f 564/2/6 555/2/6 565/2/6
f 556/2/6 557/2/6 566/2/6
f 557/2/6 552/2/6 566/2/6
f 560/2/6 561/2/6 567/2/6
f 561/2/6 562/2/6 567/2/6
f 567/2/6 562/2/6 568/2/6
f 568/2/6 562/2/6 569/2/6
f 565/2/6 555/2/6 570/2/6
f 570/2/6 555/2/6 571/2/6
f 571/2/6 555/2/6 572/2/6
f 556/2/6 566/2/6 573/2/6
f 567/2/6 568/2/6 573/2/6
f 566/2/6 567/2/6 573/2/6
f 573/2/6 568/2/6 574/2/6
f 574/2/6 568/2/6 575/2/6
f 571/2/6 572/2/6 576/2/6
f 573/2/6 574/2/6 576/2/6
f 572/2/6 573/2/6 576/2/6
f 576/2/6 574/2/6 577/2/6
f 577/2/6 574/2/6 578/2/6
f 578/2/6 574/2/6 579/2/6
f 577/2/6 578/2/6 580/2/6
f 580/2/6 578/2/6 581/2/6
f 581/2/6 578/2/6 582/2/6
f 582/2/6 578/2/6 583/2/6
f 581/2/6 582/2/6 584/2/6
f 584/2/6 582/2/6 585/2/6
f 586/3/6 587/3/6 588/3/6
f 588/3/6 587/3/6 589/3/6
f 590/3/6 591/3/6 593/3/6
f 593/3/6 591/3/6 594/3/6
f 592/3/6 593/3/6 595/3/6
f 595/3/6 593/3/6 596/3/6
f 597/3/6 598/3/6 601/3/6
f 601/3/6 598/3/6 602/3/6
f 599/3/6 600/3/6 603/3/6
f 603/3/6 600/3/6 604/3/6
f 607/3/6 608/3/6 611/3/6
f 608/2/6 609/2/6 612/2/6
f 611/3/6 608/3/6 612/3/6
f 609/3/6 610/3/6 613/3/6
f 612/2/6 609/2/6 613/2/6
f 613/3/6 610/3/6 614/3/6
f 605/3/6 606/3/6 615/3/6
f 615/3/6 606/3/6 616/3/6
f 617/3/6 618/3/6 619/3/6
f 619/3/6 618/3/6 620/3/6
f 621/3/6 622/3/6 625/3/6
f 625/3/6 622/3/6 626/3/6
f 623/3/6 624/3/6 627/3/6
f 627/3/6 624/3/6 628/3/6
f 628/3/6 629/3/6 634/3/6
f 634/3/6 629/3/6 635/3/6
f 632/3/6 633/3/6 636/3/6
f 636/3/6 633/3/6 637/3/6
f 630/3/6 631/3/6 638/3/6
f 638/3/6 631/3/6 639/3/6
f 635/3/6 629/3/6 640/3/6
f 635/3/6 640/3/6 642/3/6
f 640/3/6 641/3/6 642/3/6
f 642/3/6 641/3/6 643/3/6
f 644/3/6 645/3/6 647/3/6
f 647/3/6 645/3/6 648/3/6
f 646/3/6 647/3/6 650/3/6
f 648/3/6 649/3/6 650/3/6
f 647/3/6 648/3/6 650/3/6
f 646/3/6 650/3/6 653/3/6
f 650/3/6 651/3/6 653/3/6
f 653/3/6 651/3/6 654/3/6
f 654/3/6 651/3/6 655/3/6
f 652/3/6 653/3/6 656/3/6
f 653/3/6 654/3/6 656/3/6
f 656/3/6 654/3/6 657/3/6
f 652/3/6 656/3/6 658/3/6
f 658/3/6 656/3/6 659/3/6
f 652/3/6 658/3/6 660/3/6
f 660/3/6 658/3/6 661/3/6
f 661/3/6 658/3/6 662/3/6
f 662/3/6 658/3/6 663/3/6
f 663/3/6 658/3/6 664/3/6
f 664/3/6 658/3/6 665/3/6
f 663/3/6 664/3/6 666/3/6
f 666/3/6 664/3/6 667/3/6
f 663/3/6 666/3/6 668/3/6
f 668/3/6 666/3/6 669/3/6
